# xmcd CD database file
#
# Track frame offsets:
#	150
#	14258
#	27144
#	39962
#	53054
#	66706
#	77100
#	87991
#	100652
#	106858
#	116767
#	130158
#	142304
#	155967
#
# Disc length: 2225 seconds
#
# Revision: 0
# Processed by: cddbd v1.5.2PL0 Copyright (c) Steve Scherf et al.
# Submitted via: CDex 1.51
#
DISCID=bf08af0e
DTITLE=John Mayall And The Bluesbreakers - A Hard Road
DYEAR=1967
DGENRE=Blues
TTITLE0=A Hard Road
TTITLE1=It's Over
TTITLE2=You Don't Love Me
TTITLE3=The Stumble
TTITLE4=Another Kinda Love
TTITLE5=Hit The Highway
TTITLE6=Leaping Christine
TTITLE7=Dust My Blues
TTITLE8=There's Always Work
TTITLE9=The Same Way
TTITLE10=The Super-Natural
TTITLE11=Top Of The Hill
TTITLE12=Someday After A While (You'll Be Sorry)
TTITLE13=Living Alone
EXTD=YEAR: 1967
EXTT0=
EXTT1=
EXTT2=
EXTT3=
EXTT4=
EXTT5=
EXTT6=
EXTT7=
EXTT8=
EXTT9=
EXTT10=
EXTT11=
EXTT12=
EXTT13=
PLAYORDER=
